# xmcd CD database file
#
# Track frame offsets:
#	150
#	15055
#	34076
#	51909
#	70739
#	86887
#	107088
#	120973
#	140838
#	156372
#	175676
#	189286
#	204946
#	219488
#	234570
#	251883
#
# Disc length: 3572 seconds
#
# Revision: 3
# Processed by: cddbd v1.5.2PL0 Copyright (c) Steve Scherf et al.
# Submitted via: CDex 1.70beta2
#
DISCID=d60df210
DTITLE=Various Artist - New Country Music [CD 2)
DYEAR=2007
DGENRE=New Country
TTITLE0=Gretchen Wilson - Here For The Party
TTITLE1=Sugarland - Baby Girl
TTITLE2=Kenny Chesney - You Save Me
TTITLE3=Phil Vassar - Last Day Of My Life
TTITLE4=Josh Turner - Your Man
TTITLE5=Keith Anderson - Plan B
TTITLE6=Erika Jo - I Break Things
TTITLE7=Bruce Robison - Drivin' all Night long
TTITLE8=Sara Evans - Cheatin'
TTITLE9=Rodney Atkins - Honesty (Write Me A List)
TTITLE10=Katrina Elam - Drop Dead Gorgeous
TTITLE11=Steve Holey - Don't make me beg
TTITLE12=Gretchen Peters - Museum
TTITLE13=Chris Young - Drinkin' Me Lonely
TTITLE14=Trisha Yearwood - Trying To Love You
TTITLE15=Alan Jackson - Like Red On A Rose
EXTD=YEAR: 2007
EXTT0=
EXTT1=
EXTT2=
EXTT3=
EXTT4=
EXTT5=
EXTT6=
EXTT7=
EXTT8=
EXTT9=
EXTT10=
EXTT11=
EXTT12=
EXTT13=
EXTT14=
EXTT15=
PLAYORDER=
